<svg width="153" height="233" viewBox="0 0 153 233" fill="none" xmlns="http://www.w3.org/2000/svg">
<path d="M107.535 126.602C106.747 124.482 105.679 121.446 104.605 117.729C103.472 113.812 102.736 111.268 102.489 109.02C102.196 106.342 102.216 100.627 107.535 93.0357C107.798 92.924 108.189 92.7629 108.674 92.5888C112.392 91.2479 115.491 91.294 116.487 91.2742C119.326 91.2217 126.653 90.2555 129.345 86.1804C132.06 82.066 129.332 75.8745 128.532 74.1854C124.866 69.0489 122.692 64.563 121.37 61.3687C120.354 58.9139 118.772 54.6252 115.302 49.8042C113.469 47.2573 112.33 46.4653 111.116 45.7587C109.892 45.0456 107.408 45.1113 102.489 45.2658C99.5951 45.3578 98.1432 45.5188 95.9784 44.9371C94.5558 44.5559 93.4458 44.0203 92.7231 43.6226C94.0676 41.7165 94.4517 40.8851 94.5135 40.5006C94.5363 40.3659 94.6047 39.8729 94.7447 39.3175C94.8391 38.9297 94.8391 39.0743 94.8391 38.2002C94.8391 38.2002 95.8157 38.2002 96.4667 36.557C97.1178 34.9139 96.4667 28.6699 96.4667 28.6699C96.4667 28.6699 96.4667 27.684 95.1646 27.0267C94.9335 25.5084 94.5266 23.6484 93.7811 21.6043C93.0551 19.6095 92.199 17.963 91.421 16.6748C90.8838 15.9485 90.1188 15.1006 89.0609 14.3349C86.1864 12.2514 83.0808 12.1923 81.8178 12.2383H79.2135C79.2331 12.0772 79.2396 11.834 79.1419 11.5646C78.8913 10.8646 78.1751 10.628 78.0742 10.5951C77.8235 10.5392 77.537 10.4932 77.2213 10.4702C76.5897 10.4275 76.0461 10.5031 75.6327 10.5951C75.6327 10.5951 69.7731 7.63741 66.8433 11.581C63.9135 15.5246 62.9369 13.8814 61.6348 20.4541C61.6348 20.4541 59.3561 22.4259 57.4029 25.3835C57.4029 25.3835 56.7518 27.3553 55.4497 29.9844C55.4497 29.9844 54.4731 37.5429 52.1944 39.1861C52.1944 39.1861 54.1476 38.5288 55.1242 36.557C55.1242 36.557 54.7986 44.7728 49.2646 48.0591L58.054 44.4442C57.4387 46.9221 56.2928 48.3451 55.3651 49.1699C55.2869 49.2422 55.2055 49.3079 55.1242 49.3737C58.054 47.9507 60.9837 46.5244 63.9135 45.1015C61.9603 46.416 62.6114 48.3878 62.6114 48.3878C62.6114 48.3878 62.6114 46.7446 66.8433 45.4301C71.0752 44.1156 72.0518 39.5147 72.0518 39.5147C72.0518 39.5147 72.0518 38.2002 73.0284 37.8715C73.0284 37.8715 74.6561 43.3038 73.5167 46.0085C72.2602 46.8563 70.7399 47.7437 68.9593 48.5521C66.1369 49.8272 63.5392 50.4943 61.472 50.8525C60.2025 51.191 58.8971 51.6215 57.5657 52.167C48.4801 55.8904 43.0339 63.025 40.1497 67.7771C39.7916 68.4212 39.3652 69.1014 38.8476 69.7883C37.1874 72.0033 35.2895 73.4394 33.8018 74.3497C32.7764 74.8558 31.8649 75.0464 31.2562 75.1318C30.6376 75.214 28.9319 75.3586 26.9982 74.5567C26.1323 74.1952 25.5268 73.7023 25.1752 73.3671L24.5242 72.7098C24.5242 72.7098 23.8731 70.738 21.5944 68.4376C21.5944 68.4376 21.5944 66.1372 20.6178 66.1372C20.6178 66.1372 19.3157 66.4658 18.9901 68.4376L16.3859 66.7944C16.3859 66.7944 11.8284 60.5504 10.2008 60.2218C10.2008 60.2218 8.5731 59.5645 9.22417 62.1936C9.22417 62.1936 5.64331 58.25 6.94543 63.1795C6.94543 63.1795 5.64331 62.5222 6.29437 65.1513C6.29437 65.1513 9.87523 70.4094 10.5263 70.738C10.5263 70.738 7.92203 69.0949 6.94543 68.109C6.84453 68.0071 6.55481 67.7541 6.23578 67.8066C5.94606 67.8559 5.70515 68.1484 5.64331 68.4376C5.5489 68.8648 5.84514 69.2592 5.96884 69.4235C6.86731 70.6263 11.7275 74.3563 12.1539 74.6816C12.1539 74.6816 16.3859 79.2825 19.3157 78.9538C20.8294 80.3735 22.4277 81.8129 24.1172 83.2655C26.0802 84.9546 28.0139 86.5288 29.8954 87.9912C30.5498 88.3067 31.764 88.7898 33.3526 88.8128C35.0747 88.8391 36.3898 88.3133 37.0571 87.9912C48.5614 79.6998 52.0316 76.9097 51.8688 76.6534C51.8688 76.6501 51.8558 76.6337 51.8558 76.6304C51.9144 76.5285 57.1425 79.4829 59.0305 85.1978C56.7811 89.286 54.5284 94.1662 52.6827 99.822C51.5335 103.342 49.4632 110.473 48.7307 119.829C48.2587 125.866 48.4638 131.265 48.9391 135.807C49.0074 139.534 48.8544 143.556 48.5745 147.842C48.1252 154.618 47.1486 162.919 45.0327 168.999C43.864 171.52 42.0996 175.792 40.9635 181.323C38.6262 192.68 41.1719 198.425 38.8476 209.092C38.1314 212.372 36.6893 217.351 33.4047 223.19C33.4047 223.19 31.3603 227.167 31.3603 227.495C31.3603 227.719 30.9046 231.459 32.7862 232.566C34.1208 233.352 35.9113 232.448 37.2199 231.768C38.8183 230.94 42.0801 228.853 44.5444 223.716C45.0262 221.804 45.4754 219.717 45.8465 217.472C46.2437 215.073 46.5008 212.819 46.6603 210.735C46.6603 210.735 59.3561 185.102 59.0305 176.229C61.2084 173.153 64.1642 168.46 66.6805 162.262C68.6044 157.523 68.9658 155.124 70.9125 150.103C72.3546 146.379 74.6658 141.22 78.3997 135.314C83.5757 143.652 88.6442 149.347 92.3976 153.06C94.7154 155.354 96.5448 156.902 99.2337 159.962C103.951 165.325 106.988 170.415 108.837 173.928C108.837 173.928 110.465 189.046 115.348 194.632L123.16 210.735C124.166 213.916 124.013 215.73 123.649 216.815C123.561 217.078 123.251 217.913 122.998 219.115C122.89 219.621 122.711 220.469 122.672 221.416C122.636 222.257 122.695 223.65 123.323 225.359C125.768 226.329 129.45 227.578 134.066 228.317C136.683 228.738 146.286 230.263 147.087 227.988C147.543 226.69 144.968 224.626 143.832 223.716C140.954 221.409 138.936 221.501 135.368 219.115C133.887 218.126 132.793 217.147 132.112 216.486C130.039 205.871 128.405 197.462 128.043 195.618C127.946 195.122 127.695 193.959 127.509 192.388C127.275 190.416 127.301 189.059 127.073 187.028C126.604 182.894 125.003 176.981 123.489 171.957C120.318 161.431 121.337 162.456 119.094 155.689C117.734 151.581 115.598 145.883 112.258 139.258L107.538 126.605L107.535 126.602Z" fill="#E25973"/>
<path d="M112.471 69.67C112.471 69.67 115.727 74.2708 115.401 74.9281C115.076 75.5853 109.541 77.2285 109.541 77.2285C109.541 77.2285 108.89 71.9704 112.471 69.67Z" fill="white"/>
</svg>
